<svg xmlns="http://www.w3.org/2000/svg" viewBox="0 0 469.46 451.73"><defs><style>.cls-1,.cls-3{fill:#1d1d1b;}.cls-1{stroke:#1d1d1b;stroke-linecap:round;stroke-linejoin:round;stroke-width:12px;}.cls-2{fill:#fff;}</style></defs><g id="Layer_2" data-name="Layer 2"><g id="Layer_1-2" data-name="Layer 1"><rect class="cls-1" x="6" y="6" width="457.46" height="439.73" rx="14.64"/><path class="cls-2" d="M299.26,333.14V295.77h76.85c31.11,0,32.21,16.61,32.21,37.11Z"/><circle class="cls-2" cx="271" cy="310.06" r="23.08"/><path class="cls-2" d="M387.56,340.41h18a9,9,0,0,1,9,9v14.46a9,9,0,0,1-9,9H222a9,9,0,0,1-9-9V349.41a9,9,0,0,1,9-9H387.56"/><path class="cls-2" d="M231.5,228.94,81.23,78.67a11,11,0,0,0-15.6,0L49.85,94.45a11,11,0,0,0,0,15.6L176.71,236.91,49.85,363.77a11,11,0,0,0,0,15.6l15.78,15.78a11,11,0,0,0,15.6,0L231.5,244.89a11.46,11.46,0,0,0,0-15.95Z"/><rect class="cls-2" x="207.93" y="275.14" width="32.77" height="125.75" rx="9.19"/><path class="cls-3" d="M231.5,277.64a6.69,6.69,0,0,1,6.69,6.69V391.69a6.69,6.69,0,0,1-6.69,6.7H217.12a6.69,6.69,0,0,1-6.69-6.7V284.33a6.69,6.69,0,0,1,6.69-6.69H231.5m0-5H217.12a11.7,11.7,0,0,0-11.69,11.69V391.69a11.71,11.71,0,0,0,11.69,11.7H231.5a11.71,11.71,0,0,0,11.69-11.7V284.33a11.7,11.7,0,0,0-11.69-11.69Z"/><rect class="cls-2" x="393.1" y="340.41" width="26.18" height="55.32" rx="6.69"/><path class="cls-2" d="M296.07,213.7H278.24l19.64-19.64a1.64,1.64,0,0,0,.2-.26,3.15,3.15,0,0,0,1.05-2.34v-3.08a3.19,3.19,0,0,0-3.19-3.19H266.06a3.19,3.19,0,0,0-3.2,3.19v3.08a3.19,3.19,0,0,0,3.2,3.19h17.86l-19.8,19.8s0,.05-.07.08a3.19,3.19,0,0,0-1.06,2.36V220a3.19,3.19,0,0,0,3.19,3.19h29.89a3.19,3.19,0,0,0,3.19-3.19v-3.07A3.19,3.19,0,0,0,296.07,213.7Z"/><path class="cls-2" d="M358.78,152.9H334.62l26.61-26.61a4.19,4.19,0,0,0,.28-.34,4.28,4.28,0,0,0,1.42-3.18v-4.16a4.33,4.33,0,0,0-4.32-4.33H318.12a4.33,4.33,0,0,0-4.33,4.33v4.16a4.32,4.32,0,0,0,4.33,4.32h24.2l-26.83,26.83-.09.11a4.3,4.3,0,0,0-1.43,3.2v4.16a4.32,4.32,0,0,0,4.32,4.32h40.49a4.32,4.32,0,0,0,4.32-4.32v-4.16A4.32,4.32,0,0,0,358.78,152.9Z"/></g></g></svg>